<?xml version="1.0" encoding="UTF-8"?>
<svg version="1.1" xmlns="http://www.w3.org/2000/svg" width="549" height="549">
	<rect width="549" height="549" fill="none" />
  <path d="M0 0 C8.85040734 0.72544322 15.58381449 5.23103158 22.66015625 10.3125 C31.44548839 15.88634146 41.35957505 18.45010002 51.27734375 21.3125 C52.90349609 21.8075 52.90349609 21.8075 54.5625 22.3125 C55.54734375 22.60125 56.5321875 22.89 57.546875 23.1875 C59.8125 24.3125 59.8125 24.3125 60.765625 26.3125 C60.78109375 26.9725 60.7965625 27.6325 60.8125 28.3125 C58.6739515 30.4510485 57.67974686 30.73905063 54.8125 31.3125 C56.7925 32.6325 58.7725 33.9525 60.8125 35.3125 C60.4825 36.6325 60.1525 37.9525 59.8125 39.3125 C57.00026095 39.4853709 54.18794184 39.65172964 51.375 39.8125 C50.08577637 39.88839355 50.08577637 39.88839355 48.77050781 39.96582031 C43.87426463 40.23033621 39.05299334 40.29984085 34.15405273 40.12817383 C25.07068096 39.84295998 17.04399975 41.20831122 8.8125 45.3125 C7.4888578 49.28342659 8.08677049 50.501514 9.8125 54.3125 C14.07110212 60.87662121 20.40429839 65.12785668 26.61352539 69.67163086 C42.96045578 81.7009318 56.52893795 95.67682805 60.33984375 116.3515625 C63.42430959 142.19989604 56.38991369 163.61132452 40.8125 184.3125 C28.82824448 198.95056255 13.7477774 209.20590785 -2.40966797 218.73339844 C-3.14717285 219.17200195 -3.88467773 219.61060547 -4.64453125 220.0625 C-5.30428955 220.44921875 -5.96404785 220.8359375 -6.64379883 221.234375 C-8.35269466 222.24520081 -8.35269466 222.24520081 -9.1875 224.3125 C-9.29418812 226.16843261 -9.34297594 228.02783309 -9.36328125 229.88671875 C-9.73055007 249.95126896 -10.88482027 267.54007609 -25.25 283 C-45.86502928 302.28728163 -74.12104598 308.39346463 -101.58203125 308.3359375 C-103.19839478 308.34911011 -103.19839478 308.34911011 -104.84741211 308.36254883 C-106.94610152 308.37067649 -109.04537483 308.34095734 -111.14282227 308.26831055 C-114.07327742 308.2852638 -116.39994705 308.39764854 -119.1875 309.3125 C-121.23638129 311.43090741 -122.54975019 313.52856188 -123.97021484 316.10522461 C-125.43599988 318.76309916 -127.11215347 320.29533559 -129.5625 322.0625 C-130.33207031 322.63097656 -131.10164063 323.19945312 -131.89453125 323.78515625 C-133.9663692 325.16520503 -136.05910883 326.32492477 -138.25 327.5 C-143.86856893 330.82366049 -146.91356319 336.85303622 -150.1875 342.3125 C-149.1871875 341.99539063 -148.186875 341.67828125 -147.15625 341.3515625 C-135.87444657 337.7801079 -124.58074483 334.24735256 -113.28427124 330.72265625 C-104.51483914 327.98572175 -95.75221935 325.22910294 -87 322.4375 C-85.67210449 322.01682251 -85.67210449 322.01682251 -84.31738281 321.58764648 C-80.67135829 320.4319057 -77.03602625 319.26106792 -73.4140625 318.03125 C-64.94844036 315.21607874 -55.47332644 312.55284779 -46.6875 315.4375 C-38.69971856 319.71666863 -34.04719881 327.33284021 -29.4375 334.875 C-25.68012835 340.96462991 -21.81166973 346.94589032 -17.78125 352.859375 C-14.90932784 357.27988263 -13.82984131 359.94761971 -14.1875 365.3125 C-15.1875 366.3125 -15.1875 366.3125 -18.1875 366.6875 C-28.81861072 366.44932848 -37.23429325 356.26570675 -44.1875 349.3125 C-44.1875 352.6125 -44.1875 355.9125 -44.1875 359.3125 C-46.375 360.5 -46.375 360.5 -49.1875 361.3125 C-52.40483797 359.85703759 -54.97290427 358.05551133 -57.1875 355.3125 C-58.13671875 352.17578125 -58.13671875 352.17578125 -58.875 348.625 C-59.12636719 347.44550781 -59.37773437 346.26601563 -59.63671875 345.05078125 C-59.90935547 343.69533203 -59.90935547 343.69533203 -60.1875 342.3125 C-67.34349721 341.67357168 -72.98793516 343.26086558 -79.68945312 345.53393555 C-82.65408278 346.53825755 -85.03194874 347.3125 -88.1875 347.3125 C-88.5175 347.9725 -88.8475 348.6325 -89.1875 349.3125 C-90.82567468 349.55503495 -92.4654977 349.78936396 -94.11035156 349.98144531 C-97.89627496 350.58484354 -101.45142312 351.93067358 -105.0625 353.1875 C-106.58072917 353.70572917 -108.09895833 354.22395833 -109.6171875 354.7421875 C-111.84701401 355.50807005 -114.0767102 356.27430587 -116.30566406 357.04272461 C-120.65416169 358.51984435 -125.02676858 359.86444516 -129.4375 361.14453125 C-130.5409375 361.46873047 -131.644375 361.79292969 -132.78125 362.12695312 C-135.04894684 362.7913987 -137.31982321 363.44508907 -139.59375 364.08789062 C-145.91936802 365.96857963 -151.06870575 368.10220696 -156.3828125 372.04956055 C-160.75325014 375.10803916 -166.07689102 375.14103812 -171.1875 374.3125 C-175.45898052 371.91953555 -178.30953044 368.8239161 -180.1875 364.3125 C-181.5073136 354.415224 -178.97367571 346.18181452 -175.375 337.0625 C-174.92318359 335.84175781 -174.47136719 334.62101562 -174.00585938 333.36328125 C-171.50004274 326.80060237 -171.50004274 326.80060237 -170.1875 324.3125 C-169.1975 323.9825 -168.2075 323.6525 -167.1875 323.3125 C-166.45426204 321.29741642 -166.45426204 321.29741642 -166.1875 319.3125 C-171.0047432 320.11861126 -175.55708233 321.61034227 -180.1875 323.125 C-180.9815625 323.37314453 -181.775625 323.62128906 -182.59375 323.87695312 C-187.22969137 325.39522392 -190.46056745 327.0584926 -194.1875 330.3125 C-194.8475 330.3125 -195.5075 330.3125 -196.1875 330.3125 C-196.1875 330.9725 -196.1875 331.6325 -196.1875 332.3125 C-197.54174805 333.48242188 -197.54174805 333.48242188 -199.44921875 334.78125 C-200.5002478 335.50707275 -200.5002478 335.50707275 -201.57250977 336.24755859 C-202.33233154 336.76398926 -203.09215332 337.28041992 -203.875 337.8125 C-210.52899811 342.41542249 -217.02257149 347.14186576 -223.375 352.15234375 C-226.1875 354.3125 -226.1875 354.3125 -228.625 355.87890625 C-233.98677681 359.33843504 -235.38402347 362.66944568 -237.28515625 368.69921875 C-239.90715041 376.29278624 -246.42166635 379.80272379 -253.1875 383.3125 C-254.41919922 383.69728516 -254.41919922 383.69728516 -255.67578125 384.08984375 C-259.20457637 385.80759316 -261.09601445 388.54181261 -263.375 391.625 C-263.8491333 392.24802002 -264.3232666 392.87104004 -264.81176758 393.51293945 C-265.79545556 394.80649161 -266.77484195 396.1033257 -267.75 397.40332031 C-269.09932888 399.19539773 -270.46618246 400.97176574 -271.84375 402.7421875 C-276.58683678 408.84290023 -281.17796008 415.02010761 -285.59375 421.36328125 C-286.38265625 422.32814453 -286.38265625 422.32814453 -287.1875 423.3125 C-287.8475 423.3125 -288.5075 423.3125 -289.1875 423.3125 C-289.5175 424.6325 -289.8475 425.9525 -290.1875 427.3125 C-290.8475 427.3125 -291.5075 427.3125 -292.1875 427.3125 C-292.414375 427.993125 -292.64125 428.67375 -292.875 429.375 C-294.49976146 433.0113709 -296.51553257 436.34079263 -299.1875 439.3125 C-299.8475 439.3125 -300.5075 439.3125 -301.1875 439.3125 C-301.41050781 439.99054688 -301.63351562 440.66859375 -301.86328125 441.3671875 C-303.56012367 445.14128539 -305.87660393 448.15825042 -308.375 451.4375 C-313.6103511 458.43956893 -318.35563587 465.63829669 -322.88671875 473.1171875 C-328.07003434 481.52697145 -334.22519352 488.35019352 -341.1875 495.3125 C-349.96339531 504.41585409 -355.73453234 513.97225753 -361.1875 525.3125 C-363.1675 525.3125 -365.1475 525.3125 -367.1875 525.3125 C-371.63403384 516.80608743 -372.22268036 510.33200044 -369.625 501.0625 C-367.41198296 494.23170732 -364.05082882 488.33538623 -360.1875 482.3125 C-361.70847602 482.3125 -363.22947618 482.33791405 -364.75 482.375 C-367.1875 482.3125 -367.1875 482.3125 -368.1875 481.3125 C-369.02827261 475.85279936 -368.85049901 471.49605738 -365.5625 466.9375 C-359.32849511 459.73440387 -350.51684541 455.91742299 -341.125 454.8125 C-331.75234523 452.57909754 -324.62091594 437.7273686 -319.65625 430.0859375 C-316.51657353 425.25393541 -313.20615133 420.54477334 -309.90234375 415.82421875 C-308.20404778 413.4580831 -308.20404778 413.4580831 -307.1875 411.3125 C-306.5275 411.3125 -305.8675 411.3125 -305.1875 411.3125 C-304.96449219 410.63445312 -304.74148438 409.95640625 -304.51171875 409.2578125 C-302.81492862 405.48383092 -300.49869077 402.46642927 -298 399.1875 C-293.98945363 393.83334536 -290.24063174 388.41892547 -286.7421875 382.7109375 C-285.29273372 380.47484549 -283.72065141 378.52882779 -282 376.5 C-278.51486895 372.03755706 -277.58061086 366.98539583 -276.1640625 361.58984375 C-273.73742585 353.44605114 -268.51859528 349.28763781 -261.1875 345.3125 C-259.92821033 344.84280527 -258.65708946 344.40332398 -257.375 344 C-249.62253894 341.39517308 -243.12535892 335.06607672 -237.0625 329.75 C-234.1875 327.3125 -234.1875 327.3125 -232.1875 327.3125 C-232.1875 326.6525 -232.1875 325.9925 -232.1875 325.3125 C-231.5275 325.3125 -230.8675 325.3125 -230.1875 325.3125 C-230.1875 324.6525 -230.1875 323.9925 -230.1875 323.3125 C-228.71875 321.90234375 -228.71875 321.90234375 -226.6875 320.25 C-219.53533546 314.14850742 -213.90988659 307.42910195 -209.1875 299.3125 C-209.81011719 299.23773438 -210.43273437 299.16296875 -211.07421875 299.0859375 C-235.13905785 295.66248759 -263.28245041 287.41274395 -282.86328125 272.56640625 C-287.7731129 268.98454739 -292.46857173 269.73229127 -298.265625 270.63671875 C-299.6963937 270.93434048 -301.11961633 271.26959839 -302.53515625 271.6328125 C-304.59254862 272.16003823 -306.66696008 272.62105918 -308.74609375 273.0546875 C-321.76369385 275.8556155 -333.00842026 281.51323271 -344.29296875 288.5 C-346.76357178 289.55955759 -348.52889651 289.66059866 -351.1875 289.3125 C-354.67159835 284.08635247 -353.62404663 277.41149931 -353.1875 271.3125 C-352.462151 268.34401972 -351.53758736 266.06892837 -350.1875 263.3125 C-350.8475 263.3125 -351.5075 263.3125 -352.1875 263.3125 C-353.05375 264.17875 -353.05375 264.17875 -353.9375 265.0625 C-356.1875 267.3125 -356.1875 267.3125 -359 269.0625 C-361.88590658 271.09961053 -363.50505704 272.79723951 -365.6875 275.5 C-368.00025025 278.23649919 -368.93670206 279.21906547 -372.375 280.5 C-375.6776853 280.27982098 -376.90439152 279.68016805 -379.1875 277.3125 C-382.45308367 267.515749 -379.29835614 257.70061943 -376.1875 248.3125 C-382.93462486 250.91646654 -382.93462486 250.91646654 -389.4375 254.0625 C-392.58480833 255.49309469 -394.76730018 255.63065812 -398.1875 255.3125 C-399.1875 254.3125 -399.1875 254.3125 -399.5625 250.625 C-399.34372416 238.07522206 -392.54911307 227.88654777 -385.1875 218.3125 C-384.24970703 217.04599609 -384.24970703 217.04599609 -383.29296875 215.75390625 C-380.81883516 212.88501294 -378.06735588 210.59090235 -375.0625 208.3125 C-374.20253418 207.65785767 -374.20253418 207.65785767 -373.32519531 206.98999023 C-361.99471434 198.55518171 -349.58855781 194.11144535 -335.4375 194.125 C-334.73882812 194.12435547 -334.04015625 194.12371094 -333.3203125 194.12304688 C-327.77490949 194.17931941 -322.55439676 194.86756626 -317.1875 196.3125 C-317.1875 196.9725 -317.1875 197.6325 -317.1875 198.3125 C-315.5375 198.6425 -313.8875 198.9725 -312.1875 199.3125 C-312.9609375 197.9821875 -312.9609375 197.9821875 -313.75 196.625 C-315.27057088 193.1210758 -315.49520961 191.83325665 -314.1875 188.3125 C-311.23587982 186.83668991 -308.55075697 187.14651315 -305.2578125 187.1015625 C-303.81745003 187.07598072 -302.3771019 187.04958122 -300.93676758 187.02246094 C-300.18134674 187.00920776 -299.4259259 186.99595459 -298.64761353 186.9822998 C-269.5448507 186.42395518 -245.95639929 181.07597929 -220.21533203 167.10009766 C-202.07012329 157.25633284 -183.04488537 149.00648795 -163.1875 143.3125 C-162.44983398 143.08949219 -161.71216797 142.86648437 -160.95214844 142.63671875 C-148.80053974 139.08546421 -136.56128395 138.92593542 -124 138.875 C-123.1972464 138.86864532 -122.3944928 138.86229065 -121.56741333 138.85574341 C-96.1899303 138.7309579 -74.20679963 145.29542586 -52.83203125 159.08203125 C-52.12546387 159.53747314 -51.41889648 159.99291504 -50.69091797 160.4621582 C-49.35571057 161.33488712 -48.02967683 162.22188933 -46.71533203 163.12573242 C-41.68904828 166.44531538 -37.10985736 167.91434319 -30.97265625 166.97265625 C-30.40417969 166.77542969 -29.83570313 166.57820312 -29.25 166.375 C-22.26086893 164.39159794 -15.97166788 165.33411885 -8.875 166.5 C2.09626525 168.01252208 10.26987678 165.51131703 19.3359375 159.25390625 C26.5216782 153.62092024 31.02539569 147.37567187 32.8125 138.3125 C33.98963634 126.33014043 33.60400684 115.15106129 25.78515625 105.46875 C18.85732309 97.8961482 11.16337288 91.50353357 2.62109375 85.83642578 C-1.39947535 83.11436025 -4.17656015 80.09698212 -7.1875 76.3125 C-8.03054688 75.49523437 -8.87359375 74.67796875 -9.7421875 73.8359375 C-12.4307351 71.06149381 -14.31267624 68.23916981 -16.3125 64.9375 C-16.97507812 63.85726562 -17.63765625 62.77703125 -18.3203125 61.6640625 C-25.40532686 48.94660995 -26.52615685 33.17048943 -22.5625 19.125 C-19.72518766 11.27243837 -15.68748947 5.3018561 -8.1875 1.3125 C-5.42750661 0.46327126 -2.87652887 0.28201263 0 0 Z M49.8125 30.3125 C50.1425 30.9725 50.4725 31.6325 50.8125 32.3125 C51.4725 31.9825 52.1325 31.6525 52.8125 31.3125 C51.8225 30.9825 50.8325 30.6525 49.8125 30.3125 Z " fill="#9F5DFE" transform="translate(456.1875,23.6875)"/>
  <path d="M0 0 C0.6875 1.8125 0.6875 1.8125 1 4 C0.0246803 5.02408568 -0.98198643 6.01834406 -2 7 C-5.31245757 13.88991174 -7.31602028 20.25750304 -7 28 C-2.7965651 27.66814988 0.26565837 26.44523518 3.9375 24.5 C8.09023922 22.31996897 11.33787688 21.30405151 16 21 C15.56615496 24.5430678 15.06865707 27.7940288 13.9375 31.1875 C12.25352779 38.03565365 12.42785387 45.1328657 14 52 C17.18141867 52.46557346 19.25343123 52.50963377 21.95703125 50.6640625 C23.6935608 49.15741976 25.369718 47.62063536 27 46 C25.10696908 50.17002565 22.83508498 52.4186928 19 55 C15.8125 55.125 15.8125 55.125 13 54 C8.98853403 48.57216334 9.29598576 43.49916306 10 37 C11.1021429 32.24313218 12.46354612 27.63679833 14 23 C7.25287514 25.60396654 7.25287514 25.60396654 0.75 28.75 C-2.39730833 30.18059469 -4.57980018 30.31815812 -8 30 C-9 29 -9 29 -9.375 25.3125 C-9.28672962 16.13238041 -5.23096405 7.36582331 0 0 Z " fill="#ECDDFF" transform="translate(66,249)"/>
  <path d="M0 0 C-19.98423419 10.83520197 -40.10010493 14.90864584 -62.83203125 15.12109375 C-63.92128906 15.13624023 -65.01054687 15.15138672 -66.1328125 15.16699219 C-68.20452404 15.18035396 -70.27686876 15.15802283 -72.34765625 15.09472656 C-75.11629797 15.10524281 -77.35725747 15.16748137 -80 16 C-82.29577859 18.42622789 -83.58168612 21.00672518 -85 24 C-85.33 24 -85.66 24 -86 24 C-86.50181269 20.48731116 -86.1959495 19.26322158 -84.04296875 16.37109375 C-79.97423763 13.20072175 -77.01863027 13.25814713 -72 13.25 C-70.41659954 13.21658408 -68.83325834 13.18020646 -67.25 13.140625 C-66.50258545 13.12531738 -65.7551709 13.11000977 -64.98510742 13.09423828 C-62.58873909 12.98047636 -60.34866199 12.47931877 -58 12 C-55.872999 11.85794496 -53.74811996 11.78322181 -51.61767578 11.70996094 C-37.86686879 11.22922145 -25.24446731 9.35840499 -12.4765625 3.98828125 C-10 3 -10 3 -8 3 C-8 2.34 -8 1.68 -8 1 C-2.25 -1.125 -2.25 -1.125 0 0 Z " fill="#E1C9FE" transform="translate(417,317)"/>
  <path d="M0 0 C0 0.33 0 0.66 0 1 C-5.11728044 1.80150176 -10.16941572 2.2616534 -15.33984375 2.53515625 C-16.10680069 2.57813339 -16.87375763 2.62111053 -17.66395569 2.66539001 C-20.08832333 2.80059504 -22.51289562 2.9316162 -24.9375 3.0625 C-26.59181226 3.15401928 -28.24610933 3.24581348 -29.90039062 3.33789062 C-33.9334252 3.56177183 -37.96664862 3.78190379 -42 4 C-42.16494341 8.90706652 -41.45324397 11.70682305 -39 16 C-40.65 15.67 -42.3 15.34 -44 15 C-43.67 14.34 -43.34 13.68 -43 13 C-43.495 12.071875 -43.99 11.14375 -44.5 10.1875 C-46 7 -46 7 -45.8125 4.1875 C-45 2 -45 2 -43 1 C-40.55406424 0.8433215 -38.13222503 0.74162763 -35.68359375 0.68359375 C-34.58785789 0.6524221 -34.58785789 0.6524221 -33.46998596 0.62062073 C-31.91909633 0.57733312 -30.36814256 0.53629407 -28.81713867 0.49731445 C-26.4710427 0.43834313 -24.12518981 0.37315746 -21.77929688 0.30664062 C-14.51874781 0.10629146 -7.26391911 -0.05824448 0 0 Z " fill="#DDBEFE" transform="translate(187,210)"/>
  <path d="M0 0 C0 0.66 0 1.32 0 2 C1.32 2.66 2.64 3.32 4 4 C2.02 4 0.04 4 -2 4 C-2 3.34 -2 2.68 -2 2 C-2.66 2 -3.32 2 -4 2 C-4 1.34 -4 0.68 -4 0 C-7.68807156 0.11073668 -11.37520029 0.24115972 -15.0625 0.375 C-16.10083984 0.4059375 -17.13917969 0.436875 -18.20898438 0.46875 C-23.84435561 0.68343081 -28.64321891 1.2702061 -34 3 C-36.33215844 3.07403678 -38.66860788 3.09515886 -41 3 C-29.75676998 -4.49548668 -12.50455716 -3.36661154 0 0 Z " fill="#D6B5FE" transform="translate(139,220)"/>
  <path d="M0 0 C0 0.66 0 1.32 0 2 C-0.99 2.33 -1.98 2.66 -3 3 C-4.35386936 4.65002828 -5.68678142 6.3174387 -7 8 C-7.99 8.66 -8.98 9.32 -10 10 C-10.86281318 11.80862244 -10.86281318 11.80862244 -11.38671875 13.9140625 C-11.60263672 14.67460937 -11.81855469 15.43515625 -12.04101562 16.21875 C-12.25435547 17.0128125 -12.46769531 17.806875 -12.6875 18.625 C-12.91244141 19.42679687 -13.13738281 20.22859375 -13.36914062 21.0546875 C-13.92278748 23.0336805 -14.46271429 25.01650254 -15 27 C-15.66 27 -16.32 27 -17 27 C-15.47284535 17.58254632 -13.83268013 9.06050498 -6.34765625 2.56640625 C-4.22441934 1.06612394 -2.64713148 0 0 0 Z " fill="#CEA9FE" transform="translate(194,371)"/>
  <path d="M0 0 C0.66 0.33 1.32 0.66 2 1 C-1.61328125 5.6875 -1.61328125 5.6875 -3 7 C-3.99 7 -4.98 7 -6 7 C-6.27070312 7.58523437 -6.54140625 8.17046875 -6.8203125 8.7734375 C-7.99141283 10.98379242 -9.25775577 12.72285264 -10.875 14.625 C-11.36742188 15.21539062 -11.85984375 15.80578125 -12.3671875 16.4140625 C-14.12154783 18.11805842 -15.77028708 19.02510387 -18 20 C-13.83058208 11.27510694 -7.69301935 5.71655193 0 0 Z " fill="#CFACFE" transform="translate(85,229)"/>
  <path d="M0 0 C0.66 0 1.32 0 2 0 C2.66 4.95 3.32 9.9 4 15 C9.99061579 15.24203989 9.99061579 15.24203989 13.875 12 C14.47054687 11.443125 15.06609375 10.88625 15.6796875 10.3125 C16.11539063 9.879375 16.55109375 9.44625 17 9 C15.10696908 13.17002565 12.83508498 15.4186928 9 18 C5.8125 18.125 5.8125 18.125 3 17 C0.08393536 13.18721126 -0.34369336 10.42536531 -0.1875 5.6875 C-0.16042969 4.61886719 -0.13335937 3.55023438 -0.10546875 2.44921875 C-0.07066406 1.64097656 -0.03585938 0.83273437 0 0 Z " fill="#EADAFE" transform="translate(76,286)"/>
  <path d="M0 0 C-1.32 2.31 -2.64 4.62 -4 7 C-4.66 7 -5.32 7 -6 7 C-6.2475 7.928125 -6.495 8.85625 -6.75 9.8125 C-8.06454245 13.16458325 -8.97963384 14.1877803 -12 16 C-11.44271087 12.65626525 -10.64826111 9.96687001 -9 7 C-8.34 7 -7.68 7 -7 7 C-6.67 5.68 -6.34 4.36 -6 3 C-6.99 2.34 -7.98 1.68 -9 1 C-5.64919071 -1.10976881 -3.77897651 -1.0497157 0 0 Z " fill="#DCBDFE" transform="translate(296,340)"/>
  <path d="M0 0 C0.33 0.99 0.66 1.98 1 3 C0.56429687 3.35191406 0.12859375 3.70382812 -0.3203125 4.06640625 C-3.57699494 6.76621009 -6.43525976 9.42587905 -9.0625 12.75 C-11.66396471 15.92645152 -13.91229201 17.12406257 -18 18 C-16.625 16 -16.625 16 -15 14 C-14.34 14 -13.68 14 -13 14 C-13 13.34 -13 12.68 -13 12 C-12.34 12 -11.68 12 -11 12 C-11 11.34 -11 10.68 -11 10 C-9.35546875 8.37890625 -9.35546875 8.37890625 -7.1875 6.5625 C-4.68897282 4.45536324 -2.2757944 2.34758602 0 0 Z " fill="#CDA5FE" transform="translate(237,337)"/>
  <path d="M0 0 C0 6.63034763 -4.59147764 12.36539958 -9 17 C-9.99 17.33 -10.98 17.66 -12 18 C-11.67 16.68 -11.34 15.36 -11 14 C-10.34 14 -9.68 14 -9 14 C-8.74476563 13.27425781 -8.48953125 12.54851562 -8.2265625 11.80078125 C-6.93198926 8.8447016 -5.39544896 6.69435334 -3.375 4.1875 C-2.74335938 3.39730469 -2.11171875 2.60710937 -1.4609375 1.79296875 C-0.97882813 1.20128906 -0.49671875 0.60960937 0 0 Z " fill="#CEA8FE" transform="translate(160,421)"/>
  <path d="M0 0 C0.33 0.66 0.66 1.32 1 2 C-0.07518118 4.44332726 -1.19808566 6.76754523 -2.4375 9.125 C-2.77587891 9.78371094 -3.11425781 10.44242188 -3.46289062 11.12109375 C-4.30149926 12.75106547 -5.14984811 14.37601909 -6 16 C-7.98 16 -9.96 16 -12 16 C-12 15.01 -12 14.02 -12 13 C-10.68 13.66 -9.36 14.32 -8 15 C-7.67 14.01 -7.34 13.02 -7 12 C-6.34 12 -5.68 12 -5 12 C-5.33 10.68 -5.66 9.36 -6 8 C-5.01 7.67 -4.02 7.34 -3 7 C-2.87625 6.030625 -2.7525 5.06125 -2.625 4.0625 C-2.41875 3.051875 -2.2125 2.04125 -2 1 C-1.34 0.67 -0.68 0.34 0 0 Z " fill="#D6B8FE" transform="translate(101,533)"/>
  <path d="M0 0 C-7.0860326 5.99458208 -17.07444862 6.53316347 -26 6 C-26 5.67 -26 5.34 -26 5 C-24.515 4.72736328 -24.515 4.72736328 -23 4.44921875 C-14.47380567 2.91127069 -14.47380567 2.91127069 -6.25 0.25 C-3 -1 -3 -1 0 0 Z " fill="#DDC2FE" transform="translate(213,204)"/>
  <path d="M0 0 C0.33 0.66 0.66 1.32 1 2 C-2.33548362 8.52177628 -6.57943871 14.10827396 -12 19 C-12.66 18.67 -13.32 18.34 -14 18 C-13.05125 17.113125 -12.1025 16.22625 -11.125 15.3125 C-8.47969347 12.68573533 -7.2931678 10.51002688 -6 7 C-4.70766393 5.62689293 -3.37562854 4.28965176 -2 3 C-1.34 2.01 -0.68 1.02 0 0 Z " fill="#DDC2FE" transform="translate(132,495)"/>
  <path d="M0 0 C0 0.33 0 0.66 0 1 C-1.18078125 0.98839844 -2.3615625 0.97679687 -3.578125 0.96484375 C-5.13541508 0.95546248 -6.69270688 0.94636264 -8.25 0.9375 C-9.02730469 0.92912109 -9.80460937 0.92074219 -10.60546875 0.91210938 C-11.35957031 0.90888672 -12.11367188 0.90566406 -12.890625 0.90234375 C-13.58188477 0.89710693 -14.27314453 0.89187012 -14.98535156 0.88647461 C-17.09973898 1.00562029 -18.96641515 1.42381763 -21 2 C-15.87867402 -4.19949987 -6.73315811 -2.6275739 0 0 Z " fill="#D8BBFE" transform="translate(466,26)"/>
  <path d="M0 0 C1.29260866 2.93774696 0.92972446 4.23717993 0 7.375 C-1.96990224 11.65699406 -5.29086003 14.22576654 -9 17 C-9.66 16.67 -10.32 16.34 -11 16 C-10.45730469 15.43152344 -9.91460937 14.86304688 -9.35546875 14.27734375 C-5.13058896 9.71751853 -2.00935682 5.90248565 0 0 Z " fill="#D8BAFE" transform="translate(488,166)"/>
  <path d="M0 0 C5.42993582 -0.21349682 10.06836562 0.5044292 15.3125 1.875 C16.02728516 2.04902344 16.74207031 2.22304687 17.47851562 2.40234375 C22.74170354 3.74170354 22.74170354 3.74170354 25 6 C19.60798934 5.6021429 15.00307893 5.12630854 10 3 C6.6829666 2.24402495 3.34651624 1.61082044 0 1 C0 0.67 0 0.34 0 0 Z " fill="#E3CEFE" transform="translate(352,164)"/>
  <path d="M0 0 C0.66 0.33 1.32 0.66 2 1 C2.04254356 2.99954746 2.04080783 5.00041636 2 7 C1 8 1 8 -2.1875 8.25 C-6.22587057 7.98518881 -8.54156471 7.02444992 -12 5 C-10.68 4.67 -9.36 4.34 -8 4 C-8 4.66 -8 5.32 -8 6 C-5.69 6 -3.38 6 -1 6 C-0.67 4.02 -0.34 2.04 0 0 Z " fill="#D5B5FE" transform="translate(440,382)"/>
  <path d="M0 0 C0.6875 1.8125 0.6875 1.8125 1 4 C0.0246803 5.02408568 -0.98198643 6.01834406 -2 7 C-4.19939967 11.57475131 -5.70019861 16.1007486 -7 21 C-7.33 21 -7.66 21 -8 21 C-7.72515803 13.85410873 -5.19871066 5.19871066 0 0 Z " fill="#DBBFFE" transform="translate(66,249)"/>
  <path d="M0 0 C2.27991712 1.77502198 2.95047123 2.6300787 3.34057617 5.54370117 C3.32486572 6.53345947 3.30915527 7.52321777 3.29296875 8.54296875 C3.28330078 9.61611328 3.27363281 10.68925781 3.26367188 11.79492188 C3.23853516 12.91447266 3.21339844 14.03402344 3.1875 15.1875 C3.16719727 16.88422852 3.16719727 16.88422852 3.14648438 18.61523438 C3.11109958 21.41063317 3.06172948 24.20507892 3 27 C2.34 27.33 1.68 27.66 1 28 C1.00523682 27.40050537 1.01047363 26.80101074 1.01586914 26.18334961 C1.03681443 23.43474398 1.04971556 20.68615522 1.0625 17.9375 C1.07087891 16.99455078 1.07925781 16.05160156 1.08789062 15.08007812 C1.10581103 9.9369232 0.89259611 5.06741573 0 0 Z " fill="#E4CCFE" transform="translate(488,137)"/>
  <path d="M0 0 C0.33 0 0.66 0 1 0 C1.15187543 3.1893841 1.12065205 5.65413079 0.0625 8.6875 C-1.44450582 13.38581226 -1.66842943 18.09624575 -2 23 C-2.33 23 -2.66 23 -3 23 C-3.55353075 7.25512528 -3.55353075 7.25512528 0 0 Z " fill="#DDC0FE" transform="translate(106,287)"/>
  <path d="M0 0 C0.99 0.33 1.98 0.66 3 1 C2.360625 1.268125 1.72125 1.53625 1.0625 1.8125 C-1.33131686 2.88667752 -1.33131686 2.88667752 -2 6 C-7.46511628 11 -7.46511628 11 -10 11 C-7.99155908 6.07019047 -4.35894926 2.90596617 0 0 Z " fill="#D3B0FE" transform="translate(100,483)"/>
  <path d="M0 0 C0 4.5391754 -1.71544556 8.40715249 -4.5625 11.9375 C-6 13 -6 13 -8 13 C-6.40956621 7.91061189 -3.2553049 4.12543357 0 0 Z " fill="#D2ADFE" transform="translate(173,402)"/>
  <path d="M0 0 C0.66 0.33 1.32 0.66 2 1 C0.47005208 2.23697917 -1.05989583 3.47395833 -2.58984375 4.7109375 C-4.13266437 5.9666391 -4.13266437 5.9666391 -5 8 C-7.06640625 8.4140625 -7.06640625 8.4140625 -9.5625 8.625 C-10.80193359 8.73714844 -10.80193359 8.73714844 -12.06640625 8.8515625 C-13.02353516 8.92503906 -13.02353516 8.92503906 -14 9 C-12.50380978 6.00761955 -10.07354311 5.91383257 -7.078125 4.86328125 C-4.29542989 3.70731204 -2.22006705 2.01193576 0 0 Z " fill="#DCBEFE" transform="translate(208,362)"/>
  <path d="M0 0 C-4.69564587 4.69564587 -11.71830576 4.52825221 -18 5 C-15.4033438 2.4033438 -13.06184625 1.89312309 -9.5625 0.8125 C-8.40878906 0.44769531 -7.25507813 0.08289063 -6.06640625 -0.29296875 C-3 -1 -3 -1 0 0 Z " fill="#DABDFE" transform="translate(353,353)"/>
  <path d="M0 0 C0.66 0.33 1.32 0.66 2 1 C1.38125 1.7425 0.7625 2.485 0.125 3.25 C-1.980886 5.78109307 -1.980886 5.78109307 -3 8.0625 C-4.26736215 10.51801416 -5.99204447 12.12590817 -8 14 C-7.65015815 8.40253042 -3.85992893 3.85992893 0 0 Z " fill="#D9BCFE" transform="translate(443,28)"/>
  <path d="M0 0 C0 0.66 0 1.32 0 2 C-0.99 2.33 -1.98 2.66 -3 3 C-3.61875 3.78375 -4.2375 4.5675 -4.875 5.375 C-7.05133704 8.06341634 -8.96791653 9.39973373 -12 11 C-10.11596591 6.37555269 -5.39413618 0 0 0 Z " fill="#D6B4FE" transform="translate(194,371)"/>
  <path d="M0 0 C2.31 0 4.62 0 7 0 C4.39457984 1.73694677 2.41657225 2.69100448 -0.5 3.6875 C-1.2734375 3.95949219 -2.046875 4.23148437 -2.84375 4.51171875 C-5 5 -5 5 -8 4 C-6.8125 2.4375 -6.8125 2.4375 -5 1 C-2.3125 1.3125 -2.3125 1.3125 0 2 C0 1.34 0 0.68 0 0 Z " fill="#CDA7FE" transform="translate(356,372)"/>
  <path d="M0 0 C0.33 0.66 0.66 1.32 1 2 C1.99 2.33 2.98 2.66 4 3 C6.56111503 6.41482003 7.36444983 8.74808535 7 13 C3.70759125 10.20145256 1.96437054 6.79326725 0 3 C0 2.01 0 1.02 0 0 Z " fill="#CBA1FE" transform="translate(436,79)"/>
  <path d="M0 0 C0.671875 1.703125 0.671875 1.703125 1 4 C-0.109375 6.359375 -0.109375 6.359375 -1.75 8.75 C-2.54664063 9.94882812 -2.54664063 9.94882812 -3.359375 11.171875 C-3.90078125 11.77515625 -4.4421875 12.3784375 -5 13 C-5.99 13 -6.98 13 -8 13 C-7.54625 12.62875 -7.0925 12.2575 -6.625 11.875 C-4.54015941 9.46941471 -3.97864965 7.00119225 -3 4 C-2.34 3.67 -1.68 3.34 -1 3 C-0.67 2.01 -0.34 1.02 0 0 Z " fill="#DBC1FE" transform="translate(219,387)"/>
  <path d="M0 0 C0.66 0 1.32 0 2 0 C2.33 4.62 2.66 9.24 3 14 C2.67 13.34 2.34 12.68 2 12 C1.34 12 0.68 12 0 12 C0 8.04 0 4.08 0 0 Z " fill="#CCA4FE" transform="translate(76,286)"/>
  <path d="M0 0 C0 0.66 0 1.32 0 2 C-0.95712891 2.19916016 -0.95712891 2.19916016 -1.93359375 2.40234375 C-3.17302734 2.66724609 -3.17302734 2.66724609 -4.4375 2.9375 C-5.26121094 3.11152344 -6.08492188 3.28554687 -6.93359375 3.46484375 C-8.97661204 3.80752994 -8.97661204 3.80752994 -10 5 C-12.33297433 5.04092937 -14.66705225 5.04241723 -17 5 C-14.22005549 3.14670366 -12.21743449 2.31436395 -9.0625 1.375 C-8.20785156 1.11460937 -7.35320312 0.85421875 -6.47265625 0.5859375 C-4 0 -4 0 0 0 Z " fill="#E0C9FE" transform="translate(297,167)"/>
  <path d="M0 0 C-1.32 2.31 -2.64 4.62 -4 7 C-4.66 6.67 -5.32 6.34 -6 6 C-5.67 4.68 -5.34 3.36 -5 2 C-6.32 1.67 -7.64 1.34 -9 1 C-5.64919071 -1.10976881 -3.77897651 -1.0497157 0 0 Z " fill="#C695FE" transform="translate(296,340)"/>
  <path d="M0 0 C-3.3730619 2.96829447 -6.62968884 4.06350475 -11 5 C-13.21875 4.546875 -13.21875 4.546875 -15 4 C-13.06767179 3.13419713 -11.12892806 2.28270059 -9.1875 1.4375 C-8.10855469 0.96183594 -7.02960938 0.48617187 -5.91796875 -0.00390625 C-3 -1 -3 -1 0 0 Z " fill="#DBBFFE" transform="translate(280,173)"/>
  <path d="M0 0 C0.58007812 0.20496094 1.16015625 0.40992188 1.7578125 0.62109375 C6.1621984 2.14009813 10.35677777 3.4047151 15 4 C15 4.33 15 4.66 15 5 C6.22421525 5.76681614 6.22421525 5.76681614 3.22265625 3.88671875 C1.875 2.5 1.875 2.5 0 0 Z " fill="#D8BDFE" transform="translate(280,393)"/>
  <path d="M0 0 C0 3 0 3 -1.75 5.04296875 C-2.4925 5.75066406 -3.235 6.45835937 -4 7.1875 C-4.7425 7.90292969 -5.485 8.61835938 -6.25 9.35546875 C-7.11625 10.16951172 -7.11625 10.16951172 -8 11 C-8.66 10.67 -9.32 10.34 -10 10 C-7.04331244 5.52273027 -4.94151304 2.40016348 0 0 Z " fill="#DBBCFE" transform="translate(434,300)"/>
  <path d="M0 0 C0.66 0.33 1.32 0.66 2 1 C-2.455 6.94 -2.455 6.94 -7 13 C-7.33 11.68 -7.66 10.36 -8 9 C-5.75 6.5 -5.75 6.5 -3 4 C-1.97186389 2.68824014 -0.95915568 1.3630107 0 0 Z " fill="#E0C9FE" transform="translate(314,351)"/>
  <path d="M0 0 C0.33 0 0.66 0 1 0 C0.46148032 5.27749285 -0.77343836 9.25645564 -3 14 C-3.33 14 -3.66 14 -4 14 C-3.53328373 8.58609132 -2.75702189 4.79482068 0 0 Z " fill="#DBBDFE" transform="translate(90,517)"/>
  <path d="M0 0 C0.75 1.6875 0.75 1.6875 1 4 C-0.8125 6.75 -0.8125 6.75 -3 9 C-3.66 9 -4.32 9 -5 9 C-3.7508258 5.54074837 -2.32472205 2.85306797 0 0 Z " fill="#D1ACFE" transform="translate(142,446)"/>
  <path d="M0 0 C0.33 0.66 0.66 1.32 1 2 C-0.98 4.64 -2.96 7.28 -5 10 C-5 7.28070943 -4.94379835 5.5167956 -4 3 C-1.9375 1.25 -1.9375 1.25 0 0 Z " fill="#D6B7FE" transform="translate(154,463)"/>
  <path d="M0 0 C0.33 0.99 0.66 1.98 1 3 C-1.64 5.31 -4.28 7.62 -7 10 C-7.66 9.67 -8.32 9.34 -9 9 C-6.03 6.03 -3.06 3.06 0 0 Z " fill="#D8B7FE" transform="translate(237,337)"/>
  <path d="M0 0 C0.99 0.66 1.98 1.32 3 2 C-0.465 4.97 -0.465 4.97 -4 8 C-4.66 7.67 -5.32 7.34 -6 7 C-5.01 5.35 -4.02 3.7 -3 2 C-2.01 2.33 -1.02 2.66 0 3 C0 2.01 0 1.02 0 0 Z " fill="#CFA9FE" transform="translate(245,362)"/>
  <path d="M0 0 C-1.26839526 0.50615298 -2.53983102 1.00469099 -3.8125 1.5 C-4.87404297 1.91765625 -4.87404297 1.91765625 -5.95703125 2.34375 C-8 3 -8 3 -11 3 C-11 2.34 -11 1.68 -11 1 C-4.03571429 -1.27678571 -4.03571429 -1.27678571 0 0 Z " fill="#DABEFE" transform="translate(287,343)"/>
  <path d="M0 0 C2.0625 2.1875 2.0625 2.1875 4 5 C3.75 7.8125 3.75 7.8125 3 10 C2.34 9.67 1.68 9.34 1 9 C0.5859375 6.93359375 0.5859375 6.93359375 0.375 4.4375 C0.30023438 3.61121094 0.22546875 2.78492188 0.1484375 1.93359375 C0.09945313 1.29550781 0.05046875 0.65742188 0 0 Z " fill="#D0ABFE" transform="translate(398,370)"/>
  <path d="M0 0 C0.66 0.33 1.32 0.66 2 1 C-0.31 2.65 -2.62 4.3 -5 6 C-5.33 5.01 -5.66 4.02 -6 3 C-3 1 -3 1 0 0 Z " fill="#D0AEFE" transform="translate(233,373)"/>
  <path d="M0 0 C1.27875 -0.061875 2.5575 -0.12375 3.875 -0.1875 C4.95394531 -0.23970703 4.95394531 -0.23970703 6.0546875 -0.29296875 C6.69664062 -0.19628906 7.33859375 -0.09960938 8 0 C8.66 0.99 9.32 1.98 10 3 C3.375 2.25 3.375 2.25 0 0 Z " fill="#D8BAFE" transform="translate(217,315)"/>
  <path d="M0 0 C0 0.99 0 1.98 0 3 C-0.804375 3.12375 -1.60875 3.2475 -2.4375 3.375 C-3.7059375 3.684375 -3.7059375 3.684375 -5 4 C-5.33 4.66 -5.66 5.32 -6 6 C-6.66 5.34 -7.32 4.68 -8 4 C-2.25 0 -2.25 0 0 0 Z " fill="#D5B1FE" transform="translate(477,183)"/>
  <path d="M0 0 C2.64 0 5.28 0 8 0 C5.23776722 2.76223278 2.79293383 2.57856291 -1 3 C-0.67 2.01 -0.34 1.02 0 0 Z " fill="#D6B6FE" transform="translate(268,346)"/>
  <path d="M0 0 C2.875 0.25 2.875 0.25 6 1 C7.375 3.0625 7.375 3.0625 8 5 C4.62496331 3.8141763 2.35277269 2.72426311 0 0 Z " fill="#D4B4FE" transform="translate(176,297)"/>
  <path d="M0 0 C2.6875 -0.3125 2.6875 -0.3125 5 0 C2.64722731 2.72426311 0.37503669 3.8141763 -3 5 C-1.8125 2.5 -1.8125 2.5 0 0 Z " fill="#D4B2FE" transform="translate(462,233)"/>
</svg>
