<svg
  width="314"
  height="63"
  viewBox="0 0 314 63"
  fill="none"
  xmlns="http://www.w3.org/2000/svg"
>
  <path
    d="M3 11C12.3333 0.333333 21.6667 0.333333 31 11C40.3333 21.6667 49.6667 21.6667 59 11C68.3333 0.333333 77.6667 0.333333 87 11C96.3333 21.6667 105.667 21.6667 115 11C124.333 0.333333 133.667 0.333333 143 11C152.333 21.6667 161.667 21.6667 171 11C180.333 0.333333 189.667 0.333333 199 11C208.333 21.6667 217.667 21.6667 227 11C236.333 0.333333 245.667 0.333333 255 11C264.333 21.6667 273.667 21.6667 283 11C292.333 0.333333 301.667 0.333333 311 11"
    stroke="#209FB5"
    stroke-width="6"
  />
  <path
    d="M44 19V48C44 54.6274 49.3726 60 56 60H87"
    stroke="#209FB5"
    stroke-width="6"
  />
</svg>
