<svg
  width="566"
  height="163"
  viewBox="0 0 566 163"
  fill="none"
  xmlns="http://www.w3.org/2000/svg"
>
  <path
    d="M3 11C12.3333 0.333334 21.6667 0.333334 31 11C40.3333 21.6667 49.6667 21.6667 59 11C68.3333 0.333334 77.6667 0.333334 87 11C96.3333 21.6667 105.667 21.6667 115 11C124.333 0.333334 133.667 0.333334 143 11C152.333 21.6667 161.667 21.6667 171 11C180.333 0.333334 189.667 0.333334 199 11C208.333 21.6667 217.667 21.6667 227 11C236.333 0.333334 245.667 0.333334 255 11C264.333 21.6667 273.667 21.6667 283 11C292.333 0.333334 301.667 0.333334 311 11C320.333 21.6667 329.667 21.6667 339 11C348.333 0.333334 357.667 0.333334 367 11C376.333 21.6667 385.667 21.6667 395 11C404.333 0.333334 413.667 0.333334 423 11C432.333 21.6667 441.667 21.6667 451 11C460.333 0.333334 469.667 0.333334 479 11C488.333 21.6667 497.667 21.6667 507 11C516.333 0.333334 525.667 0.333334 535 11C544.333 21.6667 553.667 21.6667 563 11"
    stroke="#1E66F5"
    stroke-width="6"
  />
  <path
    d="M493 19V148C493 154.627 487.627 160 481 160H450"
    stroke="#1E66F5"
    stroke-width="6"
  />
</svg>
